<svg xmlns="http://www.w3.org/2000/svg" width="512" height="512" viewBox="0 0 512 512" version="1.1">
	<path d="M 227.550 70.622 C 168.956 79.752, 117.127 116.859, 90.075 169.047 C 79.853 188.766, 73.690 207.591, 70.530 228.743 C 68.523 242.179, 68.523 269.821, 70.530 283.257 C 81.635 357.594, 136.069 418.337, 208.641 437.372 C 222.032 440.884, 244.177 443.969, 256 443.969 C 267.823 443.969, 289.968 440.884, 303.359 437.372 C 368.720 420.228, 420.228 368.720, 437.372 303.359 C 440.884 289.968, 443.969 267.823, 443.969 256 C 443.969 244.177, 440.884 222.032, 437.372 208.641 C 424.028 157.770, 389.219 114.057, 342.953 90.075 C 323.234 79.853, 304.409 73.690, 283.257 70.530 C 270.473 68.621, 240.072 68.671, 227.550 70.622 M 236 83.109 C 209.398 86.121, 182.408 96.132, 159.500 111.486 C 79.373 165.188, 57.966 272.645, 111.486 352.500 C 165.188 432.627, 272.645 454.034, 352.500 400.514 C 432.627 346.812, 454.034 239.355, 400.514 159.500 C 364.068 105.120, 300.851 75.766, 236 83.109 M 243.448 91.133 C 185.485 95.068, 132.139 131.481, 106.974 184.289 C 67.657 266.795, 101.593 364.472, 183.500 404.548 C 222.235 423.500, 267.387 426.558, 308.259 412.997 C 394.490 384.384, 441.756 289.936, 412.977 203.741 C 388.926 131.704, 320.020 85.934, 243.448 91.133 M 246 122 L 246 144 250.500 144 L 255 144 255 136.500 L 255 129 260.319 129 L 265.638 129 271.473 137.503 C 276.615 144.995, 277.795 146.130, 281.404 147.052 C 283.657 147.628, 286.063 148.287, 286.750 148.518 C 288.914 149.244, 288.161 147.733, 282 139 C 278.702 134.325, 276.003 130.275, 276.002 129.999 C 276.001 129.723, 277.895 128.584, 280.212 127.468 C 285.413 124.961, 288.167 120.493, 288.167 114.560 C 288.167 108.959, 285.756 104.793, 280.954 102.094 C 277.614 100.217, 275.609 100, 261.614 100 L 246 100 246 122 M 203.892 109.087 L 199.285 111.132 198.629 123.816 C 198.268 130.792, 197.687 142.018, 197.339 148.762 L 196.706 161.023 201.353 158.426 L 206 155.829 206.010 149.665 L 206.021 143.500 214.760 139.791 L 223.500 136.081 228 141.060 C 232.543 146.087, 234.451 146.790, 239.718 145.378 C 241.713 144.843, 240.508 143.175, 227.718 128.759 C 219.898 119.945, 212.375 111.453, 211 109.888 L 208.500 107.042 203.892 109.087 M 255 114.500 L 255 121 265.277 121 C 277.426 121, 280 119.864, 280 114.500 C 280 109.136, 277.426 108, 265.277 108 L 255 108 255 114.500 M 310.278 112.750 C 309.916 113.713, 306.362 122.583, 302.382 132.462 C 298.401 142.341, 295.343 150.746, 295.586 151.139 C 296.101 151.972, 303.006 154.367, 303.400 153.850 C 304.051 152.995, 319 115.088, 319 114.292 C 319 113.494, 313.429 111, 311.648 111 C 311.257 111, 310.641 111.787, 310.278 112.750 M 206.833 125.866 C 206.650 130.448, 206.725 134.330, 207 134.493 C 207.663 134.885, 218.009 130.643, 217.960 130 C 217.939 129.725, 215.502 126.808, 212.544 123.518 L 207.167 117.536 206.833 125.866 M 163.184 128.356 C 161.083 129.522, 141 150.418, 141 151.438 C 141 151.676, 148.047 158.456, 156.659 166.506 L 172.319 181.143 175.381 178.081 L 178.443 175.019 173.722 170.225 C 171.125 167.588, 169 165.086, 169 164.663 C 169 164.241, 172.085 160.637, 175.854 156.654 C 179.806 152.479, 183.236 147.815, 183.954 145.641 C 186.189 138.867, 183.291 131.753, 176.961 128.480 C 173.471 126.675, 166.330 126.611, 163.184 128.356 M 333.823 130.866 C 331.034 133.359, 330.618 134.370, 330.635 138.616 C 330.659 144.647, 333.381 150.120, 339.032 155.500 C 344.214 160.435, 346.489 165.217, 344.988 168.023 C 343.521 170.764, 340.985 170.496, 336.302 167.104 C 332.675 164.477, 324 153.040, 324 150.886 C 324 149.397, 321.629 149.959, 319.132 152.039 L 316.763 154.012 320.132 159.582 C 327.054 171.027, 336.057 178, 343.913 178 C 351.683 178, 355 174.714, 355 167.018 C 355 161.429, 353.633 158.560, 348.173 152.694 C 339.911 143.815, 338.161 139.771, 341.413 137.073 C 344.803 134.259, 355.403 142.952, 360.226 152.500 C 361.337 154.700, 362.380 156.652, 362.544 156.838 C 362.708 157.024, 364.215 156.161, 365.893 154.921 L 368.943 152.666 366.439 148.066 C 357.481 131.607, 342.083 123.487, 333.823 130.866 M 160.082 142.619 L 152.869 150.343 157.499 154.921 L 162.129 159.500 168.609 152.500 C 176.740 143.715, 177.755 141.492, 175.201 138.055 C 174.053 136.510, 172.115 135.380, 170.299 135.198 C 167.686 134.935, 166.358 135.899, 160.082 142.619 M 240 154.538 C 228.960 156.283, 217.364 160.124, 208 165.136 C 158.963 191.384, 139.532 250.636, 163.558 300.660 C 176.183 326.949, 200.076 347.060, 227.969 354.877 C 276.067 368.356, 326.921 345.470, 348.442 300.660 C 372.468 250.636, 353.037 191.384, 304 165.136 C 294.326 159.958, 282.914 156.264, 271 154.455 C 259.580 152.720, 251.356 152.742, 240 154.538 M 247.565 161.209 C 247.344 161.919, 246.882 167.900, 246.540 174.500 C 245.347 197.523, 239.491 219.989, 229.013 241.750 L 223.114 254 256 254 L 288.886 254 282.987 241.750 C 272.444 219.855, 266.775 197.995, 265.289 173.500 L 264.500 160.500 256.234 160.209 C 250.153 159.995, 247.862 160.260, 247.565 161.209 M 232 163.105 C 227.875 164.197, 219.938 167.303, 214.362 170.008 C 187.846 182.872, 170.013 205.262, 162.844 234.693 C 159.704 247.586, 159.891 266.039, 163.293 279 C 164.665 284.225, 166.848 290.878, 168.144 293.785 L 170.500 299.071 178.500 292.729 C 188.374 284.901, 200.989 271.405, 209.558 259.500 C 221.273 243.225, 232.912 217.059, 238.077 195.383 C 240.094 186.919, 242.950 168.500, 242.982 163.750 C 243.004 160.431, 242.272 160.388, 232 163.105 M 269.018 163.750 C 269.050 168.500, 271.906 186.919, 273.923 195.383 C 279.088 217.059, 290.727 243.225, 302.442 259.500 C 311.011 271.405, 323.626 284.901, 333.500 292.729 L 341.500 299.071 343.856 293.785 C 345.152 290.878, 347.335 284.225, 348.707 279 C 352.109 266.039, 352.296 247.586, 349.156 234.693 C 341.986 205.261, 324.148 182.864, 297.638 170.011 C 288.874 165.762, 274.433 161, 270.312 161 C 269.543 161, 269.008 162.138, 269.018 163.750 M 218.277 261.250 C 214.458 269.483, 192.251 295.134, 180.672 304.688 L 175.843 308.671 181.768 316.127 C 187.364 323.169, 194.560 329.935, 201.654 334.826 C 205.819 337.696, 206.201 337.589, 205.484 333.750 C 205.150 331.962, 205.379 327.363, 205.993 323.529 C 209.102 304.111, 224.301 288.207, 244.240 283.506 C 272.696 276.796, 301.514 295.469, 306.007 323.529 C 306.621 327.363, 306.850 331.962, 306.516 333.750 C 305.799 337.589, 306.181 337.696, 310.346 334.826 C 317.440 329.935, 324.636 323.169, 330.232 316.127 L 336.157 308.671 331.328 304.688 C 319.749 295.134, 297.542 269.483, 293.723 261.250 L 292.679 259 256 259 L 219.321 259 218.277 261.250 M 247.176 288.070 C 235.089 290.449, 223.304 299.547, 218.411 310.278 C 214.418 319.037, 214.372 329.974, 218.295 338.094 C 219.781 341.171, 221.786 344.401, 222.749 345.272 C 223.712 346.144, 228.325 347.885, 233 349.141 C 240.007 351.023, 244.047 351.425, 256 351.425 C 267.953 351.425, 271.993 351.023, 279 349.141 C 283.675 347.885, 288.288 346.144, 289.251 345.272 C 290.214 344.401, 292.219 341.171, 293.705 338.094 C 297.628 329.974, 297.582 319.037, 293.589 310.278 C 286.058 293.760, 266.301 284.306, 247.176 288.070 M 252.445 305.529 C 249.292 312.657, 249.361 316.278, 252.750 321.643 C 254.262 324.038, 255.725 325.996, 256 325.996 C 257.378 325.996, 262 316.888, 262 314.174 C 262 310.450, 257.576 300, 256 300 C 255.389 300, 253.790 302.488, 252.445 305.529 M 235.655 320.829 C 232.161 324.690, 234.554 331, 239.512 331 C 242.366 331, 243.608 329.447, 241.424 328.609 C 240.488 328.250, 239.988 327.104, 240.180 325.754 C 240.623 322.632, 244.520 322.269, 248.221 325.005 C 251.038 327.088, 251.121 327.095, 250.091 325.170 C 247.080 319.545, 239.013 317.118, 235.655 320.829 M 265.629 321.078 C 264.176 322.220, 262.502 324.062, 261.909 325.170 C 260.879 327.095, 260.962 327.088, 263.779 325.005 C 267.480 322.269, 271.377 322.632, 271.820 325.754 C 272.012 327.104, 271.512 328.250, 270.576 328.609 C 268.392 329.447, 269.634 331, 272.488 331 C 275.655 331, 278 328.483, 278 325.084 C 278 319.344, 270.797 317.012, 265.629 321.078 M 254.465 335.057 C 253.601 336.455, 254.775 341, 256 341 C 256.529 341, 257.238 339.901, 257.575 338.557 C 258.213 336.014, 257.517 334, 256 334 C 255.515 334, 254.824 334.476, 254.465 335.057 M 150.667 335.667 C 149.173 337.160, 150.172 340.941, 153 344.500 C 156.258 348.600, 156.559 349.537, 154.937 350.539 C 154.352 350.900, 152.146 349.324, 150.034 347.037 C 147.831 344.650, 145.920 343.321, 145.551 343.918 C 143.977 346.464, 151.445 354, 155.542 354 C 158.299 354, 160.303 350.994, 159.326 348.322 C 158.960 347.320, 157.611 345.228, 156.330 343.673 C 155.048 342.119, 154 340.206, 154 339.423 C 154 336.850, 156.800 337.934, 159.915 341.713 C 161.998 344.240, 163.301 345.099, 163.997 344.403 C 164.692 343.708, 163.874 342.044, 161.431 339.191 C 158.582 335.863, 157.174 335, 154.589 335 C 152.798 335, 151.033 335.300, 150.667 335.667 M 355.387 336.183 C 354.942 336.904, 356.355 338.875, 358.999 341.221 L 363.342 345.075 355.312 344.406 C 350.498 344.004, 347.044 344.120, 346.689 344.695 C 346.363 345.222, 348.982 348.513, 352.509 352.009 C 358 357.451, 359.024 358.101, 359.627 356.529 C 360.146 355.178, 359.363 353.805, 356.666 351.333 C 354.650 349.485, 353 347.836, 353 347.668 C 353 347.500, 356.196 347.775, 360.102 348.279 C 370.321 349.597, 370.860 348.438, 363.491 340.991 C 357.252 334.686, 356.564 334.278, 355.387 336.183 M 340.483 351.027 C 339.831 352.082, 349.529 364, 351.040 364 C 353.595 364, 352.550 361.325, 347.913 355.994 C 342.596 349.881, 341.602 349.216, 340.483 351.027 M 166.025 354.514 C 161.914 356.348, 158.403 358.292, 158.222 358.833 C 157.663 360.511, 159.854 361.148, 162.081 359.957 C 163.882 358.993, 164.635 359.234, 167.059 361.556 C 169.417 363.816, 169.730 364.637, 168.854 366.273 C 168.060 367.756, 168.127 368.460, 169.118 369.073 C 170.742 370.077, 170.182 370.922, 173.988 361.727 C 176.590 355.443, 176.971 353.670, 175.981 352.477 C 174.452 350.634, 174.944 350.533, 166.025 354.514 M 170.250 356.277 C 167.618 357.480, 167.449 358.298, 169.483 359.986 C 170.715 361.009, 171.144 360.752, 172.011 358.470 C 173.275 355.147, 173.127 354.962, 170.250 356.277 M 330.219 359.250 C 328.865 360.898, 331.865 378.209, 333.416 377.701 C 334.012 377.506, 334.640 375.929, 334.812 374.197 C 335.239 369.875, 339.696 366.574, 342.418 368.563 C 344.245 369.899, 346 369.674, 346 368.104 C 346 367.309, 332.972 358, 331.859 358 C 331.521 358, 330.783 358.563, 330.219 359.250 M 179.562 366.570 C 175.380 372.552, 174.631 375, 176.982 375 C 178.329 375, 187.102 361.973, 186.457 360.930 C 185.320 359.091, 184.083 360.102, 179.562 366.570 M 333 364.418 C 333 367.522, 334.206 368.301, 336.460 366.653 C 338.090 365.461, 338.030 365.249, 335.607 363.662 C 333.041 361.981, 333 361.992, 333 364.418 M 187.194 371.250 C 184.999 375.238, 183.409 378.837, 183.660 379.250 C 184.800 381.118, 186.791 379.621, 188.979 375.250 C 190.360 372.490, 191.510 371.129, 191.724 372 C 191.926 372.825, 192.633 376.195, 193.296 379.490 C 194.072 383.349, 195.033 385.573, 196 385.742 C 197.707 386.042, 205.453 372.542, 204.479 370.965 C 203.297 369.053, 201.936 370.079, 199.788 374.500 C 198.585 376.975, 197.285 379, 196.899 379 C 196.513 379, 195.877 376.188, 195.487 372.750 C 194.810 366.792, 193.688 364, 191.970 364 C 191.539 364, 189.389 367.262, 187.194 371.250 M 317.808 369.750 C 317.702 371.813, 317.608 374.512, 317.597 375.750 C 317.573 378.654, 317.140 378.593, 312.428 375.028 C 308.340 371.934, 306.508 371.369, 305.558 372.907 C 304.762 374.195, 312.243 387.962, 313.750 387.983 C 315.499 388.007, 315.314 386.536, 313 382 C 310.243 376.596, 310.436 376.385, 314.894 379.916 C 317.036 381.612, 319.061 383, 319.394 383 C 319.727 383, 320.021 380.637, 320.047 377.750 L 320.093 372.500 322.566 377.250 C 323.926 379.863, 325.453 382, 325.960 382 C 328.210 382, 327.825 379.602, 324.521 373.041 C 320.506 365.069, 318.108 363.893, 317.808 369.750 M 207.526 373.957 C 207.201 374.484, 208.279 375.610, 209.922 376.460 L 212.909 378.004 210.497 384.411 C 208.425 389.917, 208.298 390.900, 209.598 391.399 C 211.131 391.988, 213.062 388.586, 214.543 382.685 C 215.407 379.241, 216.243 378.762, 219.331 379.936 C 221.247 380.664, 221.962 380.542, 222.396 379.411 C 222.966 377.925, 222.221 377.500, 213.624 374.398 C 209.037 372.743, 208.309 372.691, 207.526 373.957 M 292.500 376.789 C 289.750 377.667, 287.390 378.446, 287.256 378.520 C 287.122 378.594, 288.073 382.219, 289.368 386.577 C 290.843 391.537, 292.244 394.500, 293.112 394.500 C 294.063 394.500, 294.406 393.517, 294.203 391.375 C 293.792 387.055, 296.327 386.256, 300.175 389.494 C 303.389 392.198, 304.550 392.538, 305.473 391.044 C 305.798 390.518, 304.932 389.346, 303.548 388.440 C 301.229 386.920, 301.149 386.626, 302.516 384.673 C 304.645 381.635, 304.346 378.356, 301.777 376.557 C 299.153 374.719, 298.964 374.723, 292.500 376.789 M 295.265 379.394 C 293.486 380.002, 292.023 380.837, 292.015 381.250 C 291.938 385.112, 291.988 385.162, 295.250 384.464 C 299.017 383.659, 301 382.286, 301 380.485 C 301 378.567, 298.869 378.162, 295.265 379.394 M 271.500 380.878 C 269.850 381.231, 268.570 381.965, 268.656 382.510 C 268.742 383.054, 269.118 386.762, 269.491 390.750 C 270.252 398.870, 269.933 398.656, 279.360 397.364 C 282.502 396.933, 284 396.251, 284 395.249 C 284 394.039, 282.998 393.895, 278.500 394.457 C 273.467 395.086, 273 394.977, 273 393.180 C 273 391.920, 273.895 390.992, 275.500 390.589 C 276.875 390.244, 278 389.247, 278 388.373 C 278 387.173, 277.382 386.938, 275.478 387.416 C 273.690 387.865, 272.781 387.593, 272.355 386.481 C 271.527 384.325, 272.099 383.963, 277.569 383.181 C 283.844 382.283, 284.805 379.955, 278.833 380.118 C 276.450 380.183, 273.150 380.525, 271.500 380.878 M 249.923 383.923 C 246.051 387.795, 245.939 392.666, 249.636 396.364 C 254.813 401.540, 264 398.724, 264 391.961 C 264 389.244, 263.712 389, 260.500 389 C 258.056 389, 257 389.452, 257 390.500 C 257 391.333, 257.889 392, 259 392 C 261.267 392, 261.563 393.037, 259.800 394.800 C 258.007 396.593, 253.534 396.248, 251.655 394.171 C 246.651 388.641, 253.551 381.205, 259.968 385.212 C 262.880 387.031, 263.855 385.116, 261.139 382.914 C 257.647 380.083, 253.379 380.467, 249.923 383.923 M 230 388.383 C 230 390.119, 235.245 391.221, 236.195 389.685 C 236.580 389.062, 236.356 388.210, 235.697 387.792 C 233.698 386.521, 230 386.905, 230 388.383" stroke="none" fill="black" fill-rule="evenodd"/>
</svg>